<?xml version="1.0" encoding="utf-8"?>
<!-- Generator: Adobe Illustrator 18.0.0, SVG Export Plug-In . SVG Version: 6.00 Build 0)  -->
<!DOCTYPE svg PUBLIC "-//W3C//DTD SVG 1.1//EN" "http://www.w3.org/Graphics/SVG/1.1/DTD/svg11.dtd">
<svg version="1.1" id="Layer_1" xmlns="http://www.w3.org/2000/svg" xmlns:xlink="http://www.w3.org/1999/xlink" x="0px" y="0px"
	 viewBox="0 0 400 400" enable-background="new 0 0 400 400" xml:space="preserve">
<g>
	<g>
		<path fill="#FFFFFF" d="M113.8,192.8l-1-0.3c8.1-25,27.1-46.6,50.9-57.8l0.4,0.9C140.6,146.6,121.8,168,113.8,192.8z"/>
	</g>
	<g>
		<path fill="#FFFFFF" d="M286.1,193c-8.4-26.8-29.5-49.6-55-59.7l0.4-0.9c25.8,10.1,47.1,33.2,55.6,60.3L286.1,193z"/>
	</g>
	<g>
		<path fill="#FFFFFF" d="M199.9,280.7c-24.3,0-44.1-19.8-44.1-44.1c0-5.2,1-8.2,3-9.4c3.2-1.9,8.5,1,15.2,4.7
			c5.7,3.2,12.3,6.8,19.3,8.5l-0.2,1c-7.2-1.8-13.7-5.4-19.5-8.6c-6.4-3.5-11.5-6.3-14.2-4.7c-1.7,1-2.5,3.8-2.5,8.5
			c0,23.8,19.3,43.1,43.1,43.1s43.1-19.3,43.1-43.1c0-4.7-0.8-7.4-2.4-8.4c-2.6-1.5-7.3,1.3-13.3,4.7c-2.5,1.4-5.3,3-8.2,4.5
			l-0.4-0.9c2.9-1.4,5.7-3,8.1-4.5c6.3-3.6,11.3-6.5,14.3-4.7c2,1.2,2.9,4.1,2.9,9.3C244.1,261,224.3,280.7,199.9,280.7z"/>
	</g>
	<g>
		<path fill="#FFFFFF" d="M167.8,204.9c-2.8,0-5.2-2.3-5.2-5.2c0-2.8,2.3-5.2,5.2-5.2s5.2,2.3,5.2,5.2
			C172.9,202.6,170.6,204.9,167.8,204.9z M167.8,195.6c-2.3,0-4.2,1.9-4.2,4.2s1.9,4.2,4.2,4.2s4.2-1.9,4.2-4.2
			S170.1,195.6,167.8,195.6z"/>
	</g>
	<g>
		<path fill="#FFFFFF" d="M230,204.9c-2.8,0-5.2-2.3-5.2-5.2c0-2.8,2.3-5.2,5.2-5.2h0c2.9,0,5.2,2.3,5.2,5.2
			C235.1,202.6,232.8,204.9,230,204.9z M230,195.6c-2.4,0-4.2,1.9-4.2,4.2s1.9,4.2,4.2,4.2s4.2-1.9,4.2-4.2S232.3,195.6,230,195.6z"
			/>
	</g>
	<g>
		<path fill="#FFFFFF" d="M141.4,220.5c-6.5,0-11.5-2.2-11.5-5s5.1-5,11.5-5s11.5,2.2,11.5,5S147.9,220.5,141.4,220.5z M141.4,211.4
			c-6.3,0-10.5,2.1-10.5,4s4.2,4,10.5,4s10.5-2.1,10.5-4S147.7,211.4,141.4,211.4z"/>
	</g>
	<g>
		<path fill="#FFFFFF" d="M256.1,220.5c-6.5,0-11.5-2.2-11.5-5s5.1-5,11.5-5s11.5,2.2,11.5,5S262.5,220.5,256.1,220.5z M256.1,211.4
			c-6.3,0-10.5,2.1-10.5,4s4.2,4,10.5,4s10.5-2.1,10.5-4S262.4,211.4,256.1,211.4z"/>
	</g>
	<g>
		<path fill="#FFFFFF" d="M103.5,227.6c-10.5,0-19-8.5-19-19c0-10.5,8.5-19,19-19c3.5,0,7,1,10,2.8l-0.5,0.9
			c-2.8-1.7-6.1-2.7-9.4-2.7c-9.9,0-18,8.1-18,18c0,9.9,8.1,18,18,18c2,0,3.9-0.3,5.8-0.9l0.3,0.9
			C107.7,227.2,105.6,227.6,103.5,227.6z"/>
	</g>
	<g>
		<path fill="#FFFFFF" d="M199.9,309.7c-22.9,0-44.9-8.6-61.8-24.3c-16.8-15.5-27.1-36.6-29.1-59.2l1-0.1
			c2,22.4,12.2,43.2,28.8,58.6c16.7,15.5,38.4,24,61.1,24c22.6,0,44.3-8.6,61-24.1c16.6-15.4,26.8-36.2,28.9-58.5l0.1-0.6l0.6,0.1
			c0,0,4,0.9,6.1,0.9c9.9,0,18-8.1,18-18c0-9.9-8.1-18-18-18c-3.4,0-6.7,1-9.6,2.8l-0.5-0.8c3-1.9,6.5-2.9,10.1-2.9
			c10.5,0,19,8.5,19,19c0,10.5-8.5,19-19,19c-1.7,0-4.5-0.6-5.7-0.8c-2.2,22.4-12.5,43.2-29.1,58.6
			C244.7,301,222.8,309.7,199.9,309.7z"/>
	</g>
	<g opacity="0.9" enable-background="new    ">
		<path fill="#FFFFFF" d="M302.2,215.8c-0.5,0-1-0.2-1.4-0.6l-3.7-3.7l-3.7,3.7c-0.5,0.4-0.9,0.6-1.4,0.6c-0.8,0-1.7-0.6-2-1.4
			c-0.3-0.8-0.2-1.6,0.5-2.2l3.7-3.7l-3.6-3.6c-0.6-0.6-0.8-1.4-0.5-2.2c0.3-0.8,1.2-1.4,2-1.4c0.5,0,1,0.2,1.4,0.6l3.6,3.6l3.6-3.6
			c1.3-1.1,2.9-0.5,3.5,0.8c0.3,0.8,0.1,1.6-0.5,2.2l-3.6,3.6l3.7,3.7c0.6,0.6,0.8,1.4,0.5,2.2C303.9,215.3,303.1,215.8,302.2,215.8
			z M297.1,210.1l4.4,4.4c0.3,0.3,0.6,0.3,0.7,0.3c0.4,0,0.9-0.3,1.1-0.8c0.1-0.3,0.2-0.7-0.3-1.1l-4.4-4.4l4.4-4.4
			c0.4-0.4,0.4-0.9,0.3-1.1c-0.3-0.7-1.1-1.1-1.9-0.4l-4.3,4.3l-4.4-4.4c-0.3-0.3-0.6-0.3-0.7-0.3c-0.4,0-0.9,0.3-1.1,0.8
			c-0.1,0.3-0.2,0.7,0.3,1.1l4.4,4.4l-4.4,4.4c-0.4,0.4-0.4,0.8-0.2,1.1c0.2,0.5,0.6,0.8,1.1,0.8c0.3,0,0.5-0.1,0.8-0.3L297.1,210.1
			z"/>
	</g>
	<g opacity="0.9" enable-background="new    ">
		<path fill="#FFFFFF" d="M105.7,215.8c-0.5,0-1-0.2-1.4-0.6l-3.7-3.7l-3.7,3.7c-0.5,0.4-0.9,0.6-1.4,0.6c-0.8,0-1.7-0.6-2-1.4
			c-0.3-0.8-0.2-1.6,0.5-2.2l3.7-3.7l-3.7-3.7c-0.6-0.6-0.8-1.4-0.5-2.2c0.3-0.8,1.2-1.4,2-1.4c0.5,0,1,0.2,1.4,0.6l3.7,3.7l3.7-3.7
			c0.5-0.4,0.9-0.6,1.4-0.6c0.8,0,1.7,0.6,2,1.4c0.3,0.8,0.2,1.6-0.4,2.2l-3.7,3.7l3.7,3.7c0.6,0.6,0.8,1.4,0.5,2.2
			C107.4,215.3,106.6,215.8,105.7,215.8z M100.6,210.1l4.4,4.4c0.3,0.3,0.6,0.3,0.7,0.3c0.4,0,0.9-0.3,1.1-0.8
			c0.1-0.3,0.2-0.7-0.3-1.1l-4.4-4.4l4.4-4.4c0.4-0.5,0.3-0.9,0.2-1.1c-0.2-0.4-0.6-0.8-1.1-0.8c-0.3,0-0.5,0.1-0.8,0.3l-4.4,4.4
			l-4.4-4.4c-0.3-0.3-0.6-0.3-0.7-0.3c-0.4,0-0.9,0.3-1.1,0.8c-0.1,0.3-0.2,0.7,0.3,1.1l4.4,4.4l-4.4,4.4c-0.4,0.4-0.4,0.8-0.2,1.1
			c0.2,0.5,0.6,0.8,1.1,0.8c0.3,0,0.5-0.1,0.8-0.3L100.6,210.1z"/>
	</g>
	<g>
		<path fill="#FFFFFF" d="M199.4,142.1l-0.6,0c-8.3-0.1-17.5-1.2-24.2-2.9c-6.3-1.6-10.9-3.6-10.9-3.6l-1.1-0.5l1.2-0.4
			c0.2-0.1,17.7-6.8,25.1-26.5c2.8-7.5,2.9-14.8,2.9-14.9l0-1l0.8,0.5c0.1,0,7,4.9,14.7,11.6c8.1-7.1,13.9-13.4,14-13.4l0.6-0.6
			l0.3,0.8c0,0.1,1.5,4.9,2.9,10.6c3.4-2.3,6-4.1,6-4.1l0.6-0.4l0.2,0.7c0,0.1,1.8,7.3,2.4,14.9c1,11.6,0.6,17.9-3.8,22.1
			C222.7,142,200.4,142.1,199.4,142.1z M165.2,135.1c1.7,0.7,5.3,2,9.7,3.1c6.6,1.7,15.7,2.8,23.9,2.9l0.6,0c7.9,0,24.3-1.5,30.1-7
			c3.7-3.6,4.5-8.5,3.4-21.3c-0.5-6.1-1.7-12-2.2-14c-1,0.7-3.3,2.3-6,4.1l-0.6,0.4l-0.2-0.7c-1-4.5-2.2-8.7-2.8-10.4
			c-1.7,1.8-7,7.2-13.8,13.2l-0.3,0.3l-0.3-0.3c-6.3-5.5-12.1-9.8-14.2-11.3c-0.1,2.3-0.6,8.3-2.9,14.3
			C183.3,125.7,169.3,133.3,165.2,135.1z"/>
	</g>
	<g>
		<g>
			<path fill="#FFFFFF" d="M226.7,112.2c0,0,0,0.2,0.1,0.6c0.1,0.4,0.1,0.9,0.3,1.6c0,0.4,0.1,0.8,0.1,1.2c0,0.2,0,0.4,0,0.7
				c0,0.2,0,0.5,0,0.7c0,0.5,0,1,0,1.6c0,0.5-0.1,1.2-0.1,1.7c0,0.3-0.1,0.6-0.1,0.9c-0.1,0.3-0.1,0.7-0.2,0.9
				c-0.2,0.7-0.3,1.3-0.6,2c-0.4,1.3-1.1,2.7-1.9,4c-0.8,1.3-1.9,2.5-3.1,3.7c-1.2,1.1-2.5,2.1-3.9,3c-1.4,0.9-2.9,1.6-4.4,2.3
				c-1.5,0.7-3,1.2-4.5,1.6c-1.5,0.4-2.9,0.8-4.3,1.1c-1.4,0.3-2.7,0.5-3.9,0.6c-0.6,0.1-1.2,0.1-1.7,0.2c-0.5,0.1-1.1,0.1-1.6,0.1
				c-0.5,0-1,0.1-1.4,0.1c-0.4,0-0.8,0-1.2,0c-0.7,0-1.3,0-1.7,0c-0.4,0-0.6,0-0.6,0s0.2,0,0.6,0c0.4,0,0.9,0,1.7-0.1
				c0.4,0,0.8,0,1.2-0.1c0.4,0,0.9-0.1,1.4-0.1c0.5,0,1-0.1,1.6-0.1c0.5-0.1,1.1-0.1,1.7-0.2c1.2-0.1,2.5-0.4,3.9-0.7
				c1.4-0.3,2.8-0.7,4.3-1.1c1.5-0.4,2.9-0.9,4.4-1.6c1.5-0.7,2.9-1.3,4.3-2.3c1.4-0.9,2.7-1.8,3.9-2.9c1.2-1.1,2.2-2.3,3-3.6
				c0.2-0.3,0.4-0.7,0.6-1c0.2-0.3,0.4-0.7,0.5-1s0.3-0.7,0.5-1c0.1-0.3,0.3-0.7,0.4-1c0.3-0.7,0.4-1.3,0.6-2
				c0.1-0.3,0.1-0.6,0.2-0.9c0.1-0.3,0.1-0.6,0.2-0.9c0.1-0.6,0.1-1.2,0.2-1.7c0.1-0.5,0-1.1,0.1-1.6c0-0.3,0-0.5,0-0.7
				c0-0.2,0-0.5,0-0.7c0-0.4,0-0.8-0.1-1.2C226.8,113,226.7,112.2,226.7,112.2z"/>
		</g>
	</g>
	<g>
		<g>
			<path fill="#FFFFFF" d="M230.9,119.1c0,0,0,0.2,0.1,0.5c0,0.2,0.1,0.4,0.1,0.6c0,0.3,0.1,0.5,0.1,0.9c0,0.3,0.1,0.7,0.1,1.1
				c0,0.1,0,0.2,0,0.3c0,0.1,0,0.2,0,0.3c0,0.2,0,0.4,0,0.7c0,0.2,0,0.5,0,0.7c0,0.3,0,0.5-0.1,0.8c0,0.3,0,0.5-0.1,0.8
				c-0.1,0.3-0.1,0.5-0.2,0.8c0,0.1-0.1,0.3-0.1,0.4c0,0.1-0.1,0.3-0.1,0.4c-0.1,0.3-0.2,0.6-0.3,0.8c-0.1,0.3-0.3,0.5-0.4,0.8
				c-0.1,0.1-0.1,0.3-0.2,0.4c-0.1,0.1-0.1,0.3-0.3,0.4c-0.1,0.3-0.3,0.5-0.5,0.8c-0.6,0.9-1.3,1.7-2,2.5c-1,1-2.2,1.9-3.5,2.7
				c-0.6,0.4-1.3,0.7-2,1.1c-0.7,0.3-1.3,0.7-2.1,0.9c-1.4,0.6-2.8,1-4.3,1.4s-2.8,0.7-4.2,1c-1.4,0.3-2.7,0.5-4,0.6
				c-1.3,0.1-2.5,0.3-3.6,0.3c-1.1,0.1-2.1,0.1-3.1,0.1c-0.9,0-1.7,0-2.4,0c-0.7,0-1.2,0-1.5,0s-0.5,0-0.5,0s0.2,0,0.5,0
				s0.9,0,1.5,0c0.7,0,1.5-0.1,2.4-0.1c0.9-0.1,1.9-0.1,3.1-0.2c1.1-0.1,2.3-0.2,3.6-0.4c1.3-0.1,2.6-0.4,4-0.7
				c1.4-0.3,2.8-0.6,4.2-1c0.4-0.1,0.7-0.2,1.1-0.3c0.4-0.1,0.7-0.2,1.1-0.3c0.7-0.3,1.4-0.5,2.1-0.8c0.7-0.3,1.4-0.6,2-0.9
				c0.7-0.3,1.3-0.7,1.9-1.1c1.2-0.8,2.4-1.6,3.4-2.6c1-1,1.9-2,2.5-3.1c0.1-0.1,0.1-0.3,0.3-0.4c0.1-0.1,0.1-0.3,0.2-0.4
				c0.1-0.3,0.3-0.5,0.4-0.8c0.1-0.3,0.2-0.5,0.3-0.8c0-0.1,0.1-0.3,0.1-0.4c0-0.1,0.1-0.3,0.1-0.4c0.1-0.3,0.1-0.5,0.2-0.8
				s0.1-0.5,0.1-0.8c0-0.3,0.1-0.5,0.1-0.7c0-0.3,0-0.5,0-0.7c0-0.2,0-0.4,0-0.7c0-0.1,0-0.2,0-0.3s0-0.2,0-0.3c0-0.4,0-0.8-0.1-1.1
				c0-0.3-0.1-0.6-0.1-0.9c0-0.3-0.1-0.5-0.1-0.7C230.9,119.3,230.9,119.1,230.9,119.1z"/>
		</g>
	</g>
	<g opacity="0.98">
		<path fill="#FFFFFF" d="M222.8,241.5l-0.3-1c11-3.6,20.4-8.7,20.5-8.8l0.7-0.4l0.1,0.8c0.1,0.7,0.2,1.6,0.2,2.2l0,0
			c0,0.1,0,0.2,0,0.4c0,0,0,0,0,0h0c0,0.3-0.1,0.6-0.4,0.6c-0.3,0-0.4,0-0.5-0.5h0c0,0,0-0.1,0-0.3c0-0.3-0.1-0.8-0.2-1.5
			C240.5,234.2,232.2,238.4,222.8,241.5z"/>
	</g>
	<g opacity="0.98">
		<path fill="#FFFFFF" d="M189.5,244.4c-14-2.7-29.2-9.6-32.5-11.2c0,0.4-0.1,0.7-0.1,0.9c0,0.3,0,0.5-0.1,0.5l0,0
			c-0.1,0.5-0.2,0.5-0.5,0.5c-0.4,0-0.4-0.2-0.4-0.6l0,0c0,0,0-0.1,0-0.1c0-0.1,0-0.3,0-0.4l0,0c0.1-0.6,0.2-1.6,0.2-1.6l0.1-0.7
			l0.6,0.3c0.2,0.1,17.2,8.4,32.8,11.4L189.5,244.4z"/>
	</g>
	<g>
		<g>
			<path fill="#FFFFFF" d="M226.2,272l-1-0.2c3.1-14.1,2.1-32.3-11.2-36.9c-12.6-4.4-34.7,15.7-42.6,34.6l-0.9-0.4
				c4-9.5,11.4-19.4,20-26.6c9.1-7.6,17.8-10.7,23.9-8.6C228.3,238.8,229.4,257.5,226.2,272z"/>
		</g>
		<g>
			<path fill="#FFFFFF" d="M209.7,243.7c0,0-0.1,0.5-0.4,1.3c-0.3,0.8-0.7,2-1.2,3.5c-0.5,1.4-1.1,3.1-1.8,4.8
				c-0.7,1.8-1.4,3.6-2.1,5.5s-1.5,3.7-2.2,5.5c-0.7,1.7-1.4,3.4-2,4.8c-0.6,1.4-1.1,2.5-1.4,3.4c-0.4,0.8-0.5,1.3-0.5,1.3
				s0.1-0.5,0.4-1.3c0.3-0.8,0.7-2,1.2-3.5s1.1-3.1,1.8-4.8c0.7-1.8,1.4-3.6,2.1-5.5s1.5-3.7,2.2-5.5c0.7-1.7,1.4-3.4,2-4.8
				c0.6-1.4,1.1-2.5,1.4-3.4C209.6,244.2,209.7,243.7,209.7,243.7z"/>
		</g>
	</g>
	<g>
		<path fill="#FFFFFF" d="M165.4,134.9l-0.5-0.9c24.8-13.2,41.6-29.3,41.8-29.5l0.7,0.7C207.3,105.4,190.3,121.6,165.4,134.9z"/>
	</g>
	<g>
		<path fill="#FFFFFF" d="M168.6,133.1l-0.4-0.9c0.4-0.2,41.3-19,56-30.3l0.6,0.8C210,114,169.1,132.9,168.6,133.1z"/>
	</g>
</g>
</svg>
